<svg width="1440" height="289" viewBox="0 0 1440 289" fill="none" xmlns="http://www.w3.org/2000/svg">
    <path
        d="M-214.8 1.20731C-172.6 38.374 -13.8 107.407 283.8 86.2074C655.8 59.7074 672.6 -20.7926 904.2 51.7074C1135.8 124.207 1309.8 66.2073 1423.2 116.707C1461.34 133.691 1752.2 173.374 1940.4 169.207"
        stroke="black" stroke-opacity="0.5" />
    <path
        d="M-159.958 119.559C-117.758 156.726 41.0417 225.759 338.642 204.559C710.642 178.059 727.442 97.5592 959.042 170.059C1190.64 242.559 1364.64 184.559 1478.04 235.059C1516.18 252.043 1807.04 291.726 1995.24 287.559"
        stroke="#F8F8F8" stroke-opacity="0.5" />
    <path
        d="M-161.594 116.029C-119.394 153.196 39.406 222.229 337.006 201.029C709.006 174.529 725.806 94.0293 957.406 166.529C1189.01 239.029 1363.01 181.029 1476.41 231.529C1514.54 248.513 1805.41 288.196 1993.61 284.029"
        stroke="#F0F0F0" stroke-opacity="0.5" />
    <path
        d="M-163.216 112.529C-121.016 149.695 37.7839 218.729 335.384 197.529C707.384 171.029 724.184 90.5286 955.784 163.029C1187.38 235.529 1361.38 177.529 1474.78 228.029C1512.92 245.013 1803.78 284.695 1991.98 280.529"
        stroke="#E9E9E9" stroke-opacity="0.5" />
    <path
        d="M-164.825 109.057C-122.625 146.224 36.1753 215.257 333.775 194.057C705.775 167.557 722.575 87.0573 954.175 159.557C1185.78 232.057 1359.78 174.057 1473.18 224.557C1511.31 241.541 1802.18 281.224 1990.38 277.057"
        stroke="#E2E2E2" stroke-opacity="0.5" />
    <path
        d="M-166.42 105.615C-124.22 142.782 34.5803 211.815 332.18 190.615C704.18 164.115 720.98 83.6152 952.58 156.115C1184.18 228.615 1358.18 170.615 1471.58 221.115C1509.72 238.099 1800.58 277.782 1988.78 273.615"
        stroke="#DADADA" stroke-opacity="0.5" />
    <path
        d="M-168.001 102.202C-125.801 139.369 32.9989 208.402 330.599 187.202C702.599 160.702 719.399 80.2025 950.999 152.702C1182.6 225.202 1356.6 167.202 1470 217.702C1508.14 234.687 1799 274.369 1987.2 270.202"
        stroke="#D3D3D3" stroke-opacity="0.5" />
    <path
        d="M-169.569 98.819C-127.369 135.986 31.4311 205.019 329.031 183.819C701.031 157.319 717.831 76.819 949.431 149.319C1181.03 221.819 1355.03 163.819 1468.43 214.319C1506.57 231.303 1797.43 270.986 1985.63 266.819"
        stroke="#CCCCCC" stroke-opacity="0.5" />
    <path
        d="M-171.123 95.4648C-128.923 132.631 29.8769 201.665 327.477 180.465C699.477 153.965 716.277 73.4648 947.877 145.965C1179.48 218.465 1353.48 160.465 1466.88 210.965C1505.02 227.949 1795.88 267.631 1984.08 263.465"
        stroke="#C5C5C5" stroke-opacity="0.5" />
    <path
        d="M-172.664 92.1399C-130.464 129.307 28.3362 198.34 325.936 177.14C697.936 150.64 714.736 70.14 946.336 142.64C1177.94 215.14 1351.94 157.14 1465.34 207.64C1503.47 224.624 1794.34 264.307 1982.54 260.14"
        stroke="#BEBEBE" stroke-opacity="0.5" />
    <path
        d="M-174.191 88.8443C-131.991 126.011 26.8091 195.044 324.409 173.844C696.409 147.344 713.209 66.8443 944.809 139.344C1176.41 211.844 1350.41 153.844 1463.81 204.344C1501.95 221.328 1792.81 261.011 1981.01 256.844"
        stroke="#B7B7B7" stroke-opacity="0.5" />
    <path
        d="M-175.704 85.5779C-133.504 122.745 25.2955 191.778 322.896 170.578C694.895 144.078 711.695 63.578 943.295 136.078C1174.9 208.578 1348.9 150.578 1462.3 201.078C1500.43 218.062 1791.3 257.745 1979.5 253.578"
        stroke="#B0B0B0" stroke-opacity="0.5" />
    <path
        d="M-177.204 82.3409C-135.004 119.508 23.7956 188.541 321.396 167.341C693.396 140.841 710.196 60.3409 941.795 132.841C1173.4 205.341 1347.4 147.341 1460.8 197.841C1498.93 214.825 1789.8 254.508 1978 250.341"
        stroke="#AAAAAA" stroke-opacity="0.5" />
    <path
        d="M-178.691 79.1332C-136.491 116.3 22.3091 185.333 319.909 164.133C691.909 137.633 708.709 57.1333 940.309 129.633C1171.91 202.133 1345.91 144.133 1459.31 194.633C1497.45 211.617 1788.31 251.3 1976.51 247.133"
        stroke="#A3A3A3" stroke-opacity="0.5" />
    <path
        d="M-180.164 75.9547C-137.964 113.121 20.8363 182.155 318.436 160.955C690.436 134.455 707.236 53.9548 938.836 126.455C1170.44 198.955 1344.44 140.955 1457.84 191.455C1495.97 208.439 1786.84 248.121 1975.04 243.955"
        stroke="#9C9C9C" stroke-opacity="0.5" />
    <path
        d="M-181.623 72.8056C-139.423 109.972 19.3771 179.006 316.977 157.806C688.977 131.306 705.777 50.8056 937.377 123.306C1168.98 195.806 1342.98 137.806 1456.38 188.306C1494.52 205.29 1785.38 244.972 1973.58 240.806"
        stroke="#969696" stroke-opacity="0.5" />
    <path
        d="M-183.069 69.6857C-140.869 106.852 17.9314 175.886 315.531 154.686C687.531 128.186 704.331 47.6857 935.931 120.186C1167.53 192.686 1341.53 134.686 1454.93 185.186C1493.07 202.17 1783.93 241.852 1972.13 237.686"
        stroke="#8F8F8F" stroke-opacity="0.5" />
    <path
        d="M-184.501 66.5951C-142.301 103.762 16.4993 172.795 314.099 151.595C686.099 125.095 702.899 44.5952 934.499 117.095C1166.1 189.595 1340.1 131.595 1453.5 182.095C1491.64 199.079 1782.5 238.762 1970.7 234.595"
        stroke="#898989" stroke-opacity="0.5" />
    <path
        d="M-185.919 63.5337C-143.719 100.7 15.0807 169.734 312.681 148.534C684.681 122.034 701.481 41.5338 933.081 114.034C1164.68 186.534 1338.68 128.534 1452.08 179.034C1490.22 196.018 1781.08 235.7 1969.28 231.534"
        stroke="#828282" stroke-opacity="0.5" />
    <path
        d="M-187.324 60.5017C-145.124 97.6684 13.6757 166.702 311.276 145.502C683.276 119.002 700.076 38.5018 931.676 111.002C1163.28 183.502 1337.28 125.502 1450.68 176.002C1488.81 192.986 1779.68 232.668 1967.88 228.502"
        stroke="#7C7C7C" stroke-opacity="0.5" />
    <path
        d="M-188.716 57.4991C-146.516 94.6657 12.2844 163.699 309.884 142.499C681.884 115.999 698.684 35.4991 930.284 107.999C1161.88 180.499 1335.88 122.499 1449.28 172.999C1487.42 189.983 1778.28 229.666 1966.48 225.499"
        stroke="#767676" stroke-opacity="0.5" />
    <path
        d="M-190.093 54.5255C-147.893 91.6922 10.9065 160.726 308.507 139.526C680.506 113.026 697.306 32.5256 928.906 105.026C1160.51 177.526 1334.51 119.526 1447.91 170.026C1486.04 187.01 1776.91 226.692 1965.11 222.526"
        stroke="#707070" stroke-opacity="0.5" />
    <path
        d="M-191.458 51.5815C-149.258 88.7481 9.54227 157.782 307.142 136.582C679.142 110.082 695.942 29.5815 927.542 102.081C1159.14 174.581 1333.14 116.581 1446.54 167.081C1484.68 184.066 1775.54 223.748 1963.74 219.581"
        stroke="#696969" stroke-opacity="0.5" />
    <path
        d="M-192.808 48.6665C-150.608 85.8332 8.19159 154.867 305.792 133.667C677.792 107.167 694.592 26.6666 926.192 99.1666C1157.79 171.667 1331.79 113.667 1445.19 164.167C1483.33 181.151 1774.19 220.833 1962.39 216.667"
        stroke="#636363" stroke-opacity="0.5" />
    <path
        d="M-194.146 45.781C-151.946 82.9477 6.85447 151.981 304.454 130.781C676.454 104.281 693.254 23.7811 924.854 96.2811C1156.45 168.781 1330.45 110.781 1443.85 161.281C1481.99 178.265 1772.85 217.948 1961.05 213.781"
        stroke="#5D5D5D" stroke-opacity="0.5" />
    <path
        d="M-195.469 42.9247C-153.269 80.0914 5.53093 149.125 303.131 127.925C675.131 101.425 691.931 20.9248 923.531 93.4248C1155.13 165.925 1329.13 107.925 1442.53 158.425C1480.67 175.409 1771.53 215.091 1959.73 210.925"
        stroke="#575757" stroke-opacity="0.5" />
    <path
        d="M-196.779 40.0977C-154.579 77.2644 4.22096 146.298 301.821 125.098C673.821 98.5977 690.621 18.0977 922.221 90.5977C1153.82 163.098 1327.82 105.098 1441.22 155.598C1479.36 172.582 1770.22 212.264 1958.42 208.098"
        stroke="#515151" stroke-opacity="0.5" />
    <path
        d="M-198.075 37.3C-155.875 74.4666 2.92456 143.5 300.525 122.3C672.525 95.8 689.325 15.3 920.925 87.8C1152.52 160.3 1326.52 102.3 1439.92 152.8C1478.06 169.784 1768.92 209.467 1957.12 205.3"
        stroke="#4B4B4B" stroke-opacity="0.5" />
    <path
        d="M-199.358 34.5315C-157.158 71.6982 1.64173 140.732 299.242 119.532C671.242 93.0316 688.042 12.5316 919.642 85.0316C1151.24 157.532 1325.24 99.5316 1438.64 150.032C1476.78 167.016 1767.64 206.698 1955.84 202.532"
        stroke="#464646" stroke-opacity="0.5" />
    <path
        d="M-200.628 31.7924C-158.428 68.9591 0.372478 137.992 297.972 116.792C669.972 90.2924 686.772 9.79243 918.372 82.2924C1149.97 154.792 1323.97 96.7924 1437.37 147.292C1475.51 164.276 1766.37 203.959 1954.57 199.792"
        stroke="#404040" stroke-opacity="0.5" />
    <path
        d="M-201.883 29.0826C-159.683 66.2492 -0.883206 135.283 296.717 114.083C668.717 87.5826 685.517 7.0826 917.117 79.5826C1148.72 152.083 1322.72 94.0826 1436.12 144.583C1474.26 161.567 1765.12 201.249 1953.32 197.083"
        stroke="#3A3A3A" stroke-opacity="0.5" />
    <path
        d="M-203.125 26.402C-160.925 63.5687 -2.12532 132.602 295.475 111.402C667.475 84.9021 684.275 4.40205 915.875 76.9021C1147.47 149.402 1321.47 91.4021 1434.87 141.902C1473.01 158.886 1763.87 198.569 1952.07 194.402"
        stroke="#353535" stroke-opacity="0.5" />
    <path
        d="M-204.354 23.7508C-162.154 60.9174 -3.35386 129.951 294.246 108.751C666.246 82.2508 683.046 1.75081 914.646 74.2508C1146.25 146.751 1320.25 88.7508 1433.65 139.251C1471.78 156.235 1762.65 195.917 1950.85 191.751"
        stroke="#2F2F2F" stroke-opacity="0.5" />
    <path
        d="M-205.569 21.1288C-163.369 58.2955 -4.56883 127.329 293.031 106.129C665.031 79.6289 681.831 -0.87114 913.431 71.6289C1145.03 144.129 1319.03 86.1289 1432.43 136.629C1470.57 153.613 1761.43 193.296 1949.63 189.129"
        stroke="#2A2A2A" stroke-opacity="0.5" />
    <path
        d="M-206.77 18.536C-164.57 55.7027 -5.77023 124.736 291.83 103.536C663.83 77.0361 680.63 -3.46391 912.23 69.0361C1143.83 141.536 1317.83 83.5361 1431.23 134.036C1469.37 151.02 1760.23 190.703 1948.43 186.536"
        stroke="#242424" stroke-opacity="0.5" />
    <path
        d="M-207.958 15.9727C-165.758 53.1394 -6.95806 122.173 290.642 100.973C662.642 74.4727 679.442 -6.02727 911.042 66.4727C1142.64 138.973 1316.64 80.9727 1430.04 131.473C1468.18 148.457 1759.04 188.139 1947.24 183.973"
        stroke="#1F1F1F" stroke-opacity="0.5" />
    <path
        d="M-209.132 13.4385C-166.932 50.6052 -8.13231 119.639 289.468 98.4386C661.468 71.9386 678.268 -8.56145 909.868 63.9386C1141.47 136.439 1315.47 78.4385 1428.87 128.939C1467.01 145.923 1757.87 185.605 1946.07 181.439"
        stroke="#1A1A1A" stroke-opacity="0.5" />
    <path
        d="M-210.293 10.9337C-168.093 48.1004 -9.293 117.134 288.307 95.9338C660.307 69.4338 677.107 -11.0662 908.707 61.4338C1140.31 133.934 1314.31 75.9338 1427.71 126.434C1465.85 143.418 1756.71 183.1 1944.91 178.934"
        stroke="#141414" stroke-opacity="0.5" />
    <path
        d="M-211.44 8.45816C-169.24 45.6248 -10.4401 114.658 287.16 93.4582C659.16 66.9582 675.96 -13.5418 907.56 58.9582C1139.16 131.458 1313.16 73.4582 1426.56 123.958C1464.7 140.942 1755.56 180.625 1943.76 176.458"
        stroke="#0F0F0F" stroke-opacity="0.5" />
    <path
        d="M-212.574 6.01187C-170.374 43.1785 -11.5737 112.212 286.026 91.0119C658.026 64.5119 674.826 -15.9881 906.426 56.5119C1138.03 129.012 1312.03 71.0119 1425.43 121.512C1463.56 138.496 1754.43 178.179 1942.63 174.012"
        stroke="#0A0A0A" stroke-opacity="0.5" />
    <path
        d="M-213.694 3.595C-171.494 40.7617 -12.6936 109.795 284.906 88.5951C656.906 62.0951 673.706 -18.405 905.306 54.095C1136.91 126.595 1310.91 68.595 1424.31 119.095C1462.44 136.079 1753.31 175.762 1941.51 171.595"
        stroke="#050505" stroke-opacity="0.5" />
</svg>