<svg width="1440" height="357" viewBox="0 0 1440 357" fill="none" xmlns="http://www.w3.org/2000/svg">
<g clip-path="url(#clip0_159_2906)">
<path d="M-158.4 162.501C-116.2 195.274 42.6 256.148 340.2 237.453C712.2 214.086 729 143.101 960.6 207.031C1192.2 270.962 1366.2 219.818 1479.6 264.348C1517.74 279.325 1808.6 314.317 1996.8 310.643" stroke="white" stroke-opacity="0.5"/>
<path d="M-214.8 22.2073C-172.6 59.374 -13.8001 128.407 283.8 107.207C655.8 80.7074 672.6 0.207352 904.2 72.7074C1135.8 145.207 1309.8 87.2073 1423.2 137.707C1461.34 154.691 1752.2 194.374 1940.4 190.207" stroke="black" stroke-opacity="0.5"/>
<path d="M-159.958 140.559C-117.758 177.726 41.0416 246.759 338.642 225.559C710.642 199.059 727.442 118.559 959.042 191.059C1190.64 263.559 1364.64 205.559 1478.04 256.059C1516.18 273.043 1807.04 312.726 1995.24 308.559" stroke="#F8F8F8" stroke-opacity="0.5"/>
<path d="M-161.594 137.029C-119.394 174.196 39.4059 243.229 337.006 222.029C709.006 195.529 725.806 115.029 957.406 187.529C1189.01 260.029 1363.01 202.029 1476.41 252.529C1514.54 269.513 1805.41 309.196 1993.61 305.029" stroke="#F0F0F0" stroke-opacity="0.5"/>
<path d="M-163.216 133.529C-121.016 170.695 37.7838 239.729 335.384 218.529C707.384 192.029 724.184 111.529 955.784 184.029C1187.38 256.529 1361.38 198.529 1474.78 249.029C1512.92 266.013 1803.78 305.695 1991.98 301.529" stroke="#E9E9E9" stroke-opacity="0.5"/>
<path d="M-164.825 130.057C-122.625 167.224 36.1753 236.257 333.775 215.057C705.775 188.557 722.575 108.057 954.175 180.557C1185.78 253.057 1359.78 195.057 1473.18 245.557C1511.31 262.541 1802.18 302.224 1990.38 298.057" stroke="#E2E2E2" stroke-opacity="0.5"/>
<path d="M-166.42 126.615C-124.22 163.782 34.5803 232.815 332.18 211.615C704.18 185.115 720.98 104.615 952.58 177.115C1184.18 249.615 1358.18 191.615 1471.58 242.115C1509.72 259.099 1800.58 298.782 1988.78 294.615" stroke="#DADADA" stroke-opacity="0.5"/>
<path d="M-168.001 123.202C-125.801 160.369 32.9989 229.402 330.599 208.202C702.599 181.702 719.399 101.202 950.999 173.702C1182.6 246.202 1356.6 188.202 1470 238.702C1508.14 255.687 1799 295.369 1987.2 291.202" stroke="#D3D3D3" stroke-opacity="0.5"/>
<path d="M-169.569 119.819C-127.369 156.986 31.431 226.019 329.031 204.819C701.031 178.319 717.831 97.819 949.431 170.319C1181.03 242.819 1355.03 184.819 1468.43 235.319C1506.57 252.303 1797.43 291.986 1985.63 287.819" stroke="#CCCCCC" stroke-opacity="0.5"/>
<path d="M-171.123 116.465C-128.923 153.631 29.8768 222.665 327.477 201.465C699.477 174.965 716.277 94.4648 947.877 166.965C1179.48 239.465 1353.48 181.465 1466.88 231.965C1505.02 248.949 1795.88 288.631 1984.08 284.465" stroke="#C5C5C5" stroke-opacity="0.5"/>
<path d="M-172.664 113.14C-130.464 150.307 28.3362 219.34 325.936 198.14C697.936 171.64 714.736 91.1399 946.336 163.64C1177.94 236.14 1351.94 178.14 1465.34 228.64C1503.47 245.624 1794.34 285.307 1982.54 281.14" stroke="#BEBEBE" stroke-opacity="0.5"/>
<path d="M-174.191 109.844C-131.991 147.011 26.8091 216.044 324.409 194.844C696.409 168.344 713.209 87.8443 944.809 160.344C1176.41 232.844 1350.41 174.844 1463.81 225.344C1501.95 242.328 1792.81 282.011 1981.01 277.844" stroke="#B7B7B7" stroke-opacity="0.5"/>
<path d="M-175.704 106.578C-133.504 143.745 25.2955 212.778 322.896 191.578C694.895 165.078 711.695 84.578 943.295 157.078C1174.9 229.578 1348.9 171.578 1462.3 222.078C1500.43 239.062 1791.3 278.745 1979.5 274.578" stroke="#B0B0B0" stroke-opacity="0.5"/>
<path d="M-177.204 103.341C-135.004 140.508 23.7955 209.541 321.396 188.341C693.395 161.841 710.195 81.341 941.795 153.841C1173.4 226.341 1347.4 168.341 1460.8 218.841C1498.93 235.825 1789.8 275.508 1978 271.341" stroke="#AAAAAA" stroke-opacity="0.5"/>
<path d="M-178.691 100.133C-136.491 137.3 22.3091 206.333 319.909 185.133C691.909 158.633 708.709 78.1332 940.309 150.633C1171.91 223.133 1345.91 165.133 1459.31 215.633C1497.45 232.617 1788.31 272.3 1976.51 268.133" stroke="#A3A3A3" stroke-opacity="0.5"/>
<path d="M-180.164 96.9547C-137.964 134.121 20.8363 203.155 318.436 181.955C690.436 155.455 707.236 74.9547 938.836 147.455C1170.44 219.955 1344.44 161.955 1457.84 212.455C1495.97 229.439 1786.84 269.121 1975.04 264.955" stroke="#9C9C9C" stroke-opacity="0.5"/>
<path d="M-181.623 93.8055C-139.423 130.972 19.3771 200.006 316.977 178.806C688.977 152.306 705.777 71.8056 937.377 144.306C1168.98 216.806 1342.98 158.806 1456.38 209.306C1494.52 226.29 1785.38 265.972 1973.58 261.806" stroke="#969696" stroke-opacity="0.5"/>
<path d="M-183.069 90.6856C-140.869 127.852 17.9314 196.886 315.531 175.686C687.531 149.186 704.331 68.6857 935.931 141.186C1167.53 213.686 1341.53 155.686 1454.93 206.186C1493.07 223.17 1783.93 262.852 1972.13 258.686" stroke="#8F8F8F" stroke-opacity="0.5"/>
<path d="M-184.501 87.5951C-142.301 124.762 16.4993 193.795 314.099 172.595C686.099 146.095 702.899 65.5951 934.499 138.095C1166.1 210.595 1340.1 152.595 1453.5 203.095C1491.64 220.079 1782.5 259.762 1970.7 255.595" stroke="#898989" stroke-opacity="0.5"/>
<path d="M-185.919 84.5338C-143.719 121.7 15.0807 190.734 312.681 169.534C684.681 143.034 701.481 62.5338 933.081 135.034C1164.68 207.534 1338.68 149.534 1452.08 200.034C1490.22 217.018 1781.08 256.7 1969.28 252.534" stroke="#828282" stroke-opacity="0.5"/>
<path d="M-187.324 81.5017C-145.124 118.668 13.6756 187.702 311.276 166.502C683.276 140.002 700.076 59.5018 931.676 132.002C1163.28 204.502 1337.28 146.502 1450.68 197.002C1488.81 213.986 1779.68 253.668 1967.88 249.502" stroke="#7C7C7C" stroke-opacity="0.5"/>
<path d="M-188.716 78.499C-146.516 115.666 12.2843 184.699 309.884 163.499C681.884 136.999 698.684 56.499 930.284 128.999C1161.88 201.499 1335.88 143.499 1449.28 193.999C1487.42 210.983 1778.28 250.666 1966.48 246.499" stroke="#767676" stroke-opacity="0.5"/>
<path d="M-190.094 75.5255C-147.894 112.692 10.9065 181.726 308.506 160.526C680.506 134.026 697.306 53.5256 928.906 126.026C1160.51 198.526 1334.51 140.526 1447.91 191.026C1486.04 208.01 1776.91 247.692 1965.11 243.526" stroke="#707070" stroke-opacity="0.5"/>
<path d="M-191.458 72.5815C-149.258 109.748 9.54222 178.782 307.142 157.582C679.142 131.082 695.942 50.5815 927.542 123.081C1159.14 195.581 1333.14 137.581 1446.54 188.081C1484.68 205.066 1775.54 244.748 1963.74 240.581" stroke="#696969" stroke-opacity="0.5"/>
<path d="M-192.808 69.6665C-150.608 106.833 8.19152 175.867 305.791 154.667C677.791 128.167 694.591 47.6666 926.191 120.167C1157.79 192.667 1331.79 134.667 1445.19 185.167C1483.33 202.151 1774.19 241.833 1962.39 237.667" stroke="#636363" stroke-opacity="0.5"/>
<path d="M-194.146 66.781C-151.946 103.948 6.85448 172.981 304.454 151.781C676.454 125.281 693.254 44.781 924.854 117.281C1156.45 189.781 1330.45 131.781 1443.85 182.281C1481.99 199.265 1772.85 238.948 1961.05 234.781" stroke="#5D5D5D" stroke-opacity="0.5"/>
<path d="M-195.469 63.9247C-153.269 101.091 5.53087 170.125 303.131 148.925C675.131 122.425 691.931 41.9248 923.531 114.425C1155.13 186.925 1329.13 128.925 1442.53 179.425C1480.67 196.409 1771.53 236.091 1959.73 231.925" stroke="#575757" stroke-opacity="0.5"/>
<path d="M-196.779 61.0977C-154.579 98.2644 4.22094 167.298 301.821 146.098C673.821 119.598 690.621 39.0977 922.221 111.598C1153.82 184.098 1327.82 126.098 1441.22 176.598C1479.36 193.582 1770.22 233.264 1958.42 229.098" stroke="#515151" stroke-opacity="0.5"/>
<path d="M-198.075 58.3C-155.875 95.4666 2.92455 164.5 300.525 143.3C672.525 116.8 689.325 36.3 920.924 108.8C1152.52 181.3 1326.52 123.3 1439.92 173.8C1478.06 190.784 1768.92 230.467 1957.12 226.3" stroke="#4B4B4B" stroke-opacity="0.5"/>
<path d="M-199.358 55.5315C-157.158 92.6982 1.64171 161.732 299.242 140.532C671.242 114.032 688.042 33.5316 919.642 106.032C1151.24 178.532 1325.24 120.532 1438.64 171.032C1476.78 188.016 1767.64 227.698 1955.84 223.532" stroke="#464646" stroke-opacity="0.5"/>
<path d="M-200.628 52.7924C-158.428 89.9591 0.372425 158.993 297.972 137.793C669.972 111.293 686.772 30.7925 918.372 103.292C1149.97 175.792 1323.97 117.792 1437.37 168.292C1475.51 185.277 1766.37 224.959 1954.57 220.792" stroke="#404040" stroke-opacity="0.5"/>
<path d="M-201.883 50.0826C-159.683 87.2492 -0.883313 156.283 296.717 135.083C668.717 108.583 685.517 28.0826 917.117 100.583C1148.72 173.083 1322.72 115.083 1436.12 165.583C1474.26 182.567 1765.12 222.249 1953.32 218.083" stroke="#3A3A3A" stroke-opacity="0.5"/>
<path d="M-203.125 47.402C-160.925 84.5687 -2.12538 153.602 295.475 132.402C667.475 105.902 684.275 25.4021 915.875 97.9021C1147.47 170.402 1321.47 112.402 1434.87 162.902C1473.01 179.886 1763.87 219.569 1952.07 215.402" stroke="#353535" stroke-opacity="0.5"/>
<path d="M-204.354 44.7508C-162.154 81.9174 -3.35389 150.951 294.246 129.751C666.246 103.251 683.046 22.7508 914.646 95.2508C1146.25 167.751 1320.25 109.751 1433.65 160.251C1471.78 177.235 1762.65 216.917 1950.85 212.751" stroke="#2F2F2F" stroke-opacity="0.5"/>
<path d="M-205.569 42.1288C-163.369 79.2954 -4.56886 148.329 293.031 127.129C665.031 100.629 681.831 20.1288 913.431 92.6288C1145.03 165.129 1319.03 107.129 1432.43 157.629C1470.57 174.613 1761.43 214.295 1949.63 210.129" stroke="#2A2A2A" stroke-opacity="0.5"/>
<path d="M-206.77 39.536C-164.57 76.7027 -5.77028 145.736 291.83 124.536C663.83 98.0361 680.63 17.5361 912.23 90.0361C1143.83 162.536 1317.83 104.536 1431.23 155.036C1469.37 172.02 1760.23 211.703 1948.43 207.536" stroke="#242424" stroke-opacity="0.5"/>
<path d="M-207.958 36.9727C-165.758 74.1394 -6.95814 143.173 290.642 121.973C662.642 95.4727 679.442 14.9727 911.042 87.4727C1142.64 159.973 1316.64 101.973 1430.04 152.473C1468.18 169.457 1759.04 209.139 1947.24 204.973" stroke="#1F1F1F" stroke-opacity="0.5"/>
<path d="M-209.132 34.4386C-166.932 71.6052 -8.13234 140.639 289.468 119.439C661.468 92.9386 678.268 12.4386 909.868 84.9386C1141.47 157.439 1315.47 99.4386 1428.87 149.939C1467.01 166.923 1757.87 206.605 1946.07 202.439" stroke="#1A1A1A" stroke-opacity="0.5"/>
<path d="M-210.293 31.9337C-168.093 69.1004 -9.29298 138.134 288.307 116.934C660.307 90.4338 677.107 9.93379 908.707 82.4338C1140.31 154.934 1314.31 96.9338 1427.71 147.434C1465.85 164.418 1756.71 204.1 1944.91 199.934" stroke="#141414" stroke-opacity="0.5"/>
<path d="M-211.44 29.4582C-169.24 66.6248 -10.4402 135.658 287.16 114.458C659.16 87.9582 675.96 7.45821 907.56 79.9582C1139.16 152.458 1313.16 94.4582 1426.56 144.958C1464.7 161.942 1755.56 201.625 1943.76 197.458" stroke="#0F0F0F" stroke-opacity="0.5"/>
<path d="M-212.574 27.0119C-170.374 64.1786 -11.5737 133.212 286.026 112.012C658.026 85.512 674.826 5.01198 906.426 77.512C1138.03 150.012 1312.03 92.012 1425.43 142.512C1463.56 159.496 1754.43 199.179 1942.63 195.012" stroke="#0A0A0A" stroke-opacity="0.5"/>
<path d="M-213.694 24.5949C-171.494 61.7616 -12.6936 130.795 284.906 109.595C656.906 83.095 673.706 2.59499 905.306 75.095C1136.91 147.595 1310.91 89.595 1424.31 140.095C1462.44 157.079 1753.31 196.762 1941.51 192.595" stroke="#050505" stroke-opacity="0.5"/>
</g>
<defs>
<clipPath id="clip0_159_2906">
<rect width="1440" height="357" fill="white"/>
</clipPath>
</defs>
</svg>
